<svg width="50" height="39" viewBox="0 0 50 39" fill="none" xmlns="http://www.w3.org/2000/svg">
<path fill-rule="evenodd" clip-rule="evenodd" d="M25.4307 36.4205L38.9416 38.8028C42.3484 39.4035 45.5972 37.1287 46.1979 33.7218L49.9036 12.7058C50.5044 9.29898 48.2295 6.05019 44.8227 5.44947L40.9319 4.76343V30.1566C40.9319 33.616 38.1275 36.4205 34.6681 36.4205H25.4307Z" fill="white"/>
<rect x="0.52832" width="37.4965" height="33.8678" rx="6.26382" fill="white"/>
<path fill-rule="evenodd" clip-rule="evenodd" d="M32.356 19.1864C32.356 18.0596 31.7132 17.0779 30.7819 16.5997C30.6546 16.5346 30.5679 16.4313 30.5247 16.2927C30.4815 16.1543 30.4937 16.0193 30.561 15.8914C30.7732 15.4867 30.8937 15.0262 30.8937 14.5382C30.8937 12.9963 29.6911 11.7262 28.1914 11.646C28.0489 11.6387 27.929 11.5798 27.8346 11.4716C27.74 11.3633 27.6973 11.2356 27.7071 11.0913C27.841 9.11384 26.7819 7.2872 25.1052 6.41113C25.3183 10.0354 22.6424 10.7979 20.0683 11.5315C19.6863 11.6403 19.3066 11.7485 18.9389 11.8653C18.1183 12.126 17.5154 12.684 17.1837 13.4895C16.8521 14.2945 16.8846 15.1228 17.2781 15.8986C17.342 16.0245 17.353 16.1569 17.3106 16.2927C17.2673 16.4313 17.1809 16.5343 17.0533 16.5997C16.122 17.0779 15.4795 18.0596 15.4795 19.1864C15.4795 20.7792 16.7631 22.0825 18.3321 22.0822H29.5034C31.0721 22.0822 32.356 20.7792 32.356 19.1864ZM6.93916 13.5344C6.15235 13.5344 5.51451 14.1722 5.51451 14.959C5.51451 15.7459 6.15235 16.3837 6.93916 16.3837H11.2131C11.9999 16.3837 12.6377 15.7459 12.6377 14.959C12.6377 14.1722 11.9999 13.5344 11.2131 13.5344H6.93916ZM6.93916 19.233C6.15235 19.233 5.51451 19.8709 5.51451 20.6577C5.51451 21.4445 6.15235 22.0823 6.93916 22.0823H11.2131C11.9999 22.0823 12.6377 21.4445 12.6377 20.6577C12.6377 19.8709 11.9999 19.233 11.2131 19.233H6.93916ZM5.36646 26.4766C5.36646 25.6898 6.00429 25.0519 6.7911 25.0519H31.7618C32.5486 25.0519 33.1865 25.6898 33.1865 26.4766C33.1865 27.2634 32.5486 27.9012 31.7618 27.9012H6.7911C6.00429 27.9012 5.36646 27.2634 5.36646 26.4766Z" fill="#7868E6"/>
</svg>
