<svg width="41" height="33" viewBox="0 0 41 33" fill="none" xmlns="http://www.w3.org/2000/svg">
<path fill-rule="evenodd" clip-rule="evenodd" d="M20.5396 30.0401L31.6836 32.0051C34.4937 32.5006 37.1733 30.6243 37.6688 27.8142L40.7253 10.48C41.2208 7.66994 39.3445 4.9903 36.5344 4.49482L33.3253 3.92896V24.8736C33.3253 27.727 31.0122 30.0401 28.1588 30.0401H20.5396Z" fill="#7868E6"/>
<rect width="30.9277" height="27.9347" rx="5.16649" fill="#7868E6"/>
<path fill-rule="evenodd" clip-rule="evenodd" d="M26.2521 15.8251C26.2521 14.8957 25.7219 14.0859 24.9537 13.6915C24.8487 13.6378 24.7772 13.5526 24.7416 13.4383C24.7059 13.3241 24.716 13.2128 24.7715 13.1073C24.9466 12.7735 25.0459 12.3937 25.0459 11.9912C25.0459 10.7194 24.054 9.67179 22.817 9.60563C22.6995 9.59963 22.6006 9.55103 22.5228 9.46175C22.4448 9.37247 22.4095 9.26713 22.4175 9.14809C22.5281 7.51707 21.6545 6.01043 20.2715 5.28784C20.4473 8.27719 18.2401 8.90615 16.117 9.51117C15.8019 9.60095 15.4887 9.69019 15.1855 9.78655C14.5086 10.0015 14.0113 10.4618 13.7378 11.1262C13.4642 11.7901 13.491 12.4733 13.8156 13.1133C13.8683 13.2171 13.8774 13.3263 13.8424 13.4383C13.8067 13.5526 13.7355 13.6376 13.6302 13.6915C12.8621 14.0859 12.3321 14.8957 12.3321 15.8251C12.3321 17.1388 13.3908 18.2138 14.685 18.2136H23.8992C25.1931 18.2136 26.2521 17.1388 26.2521 15.8251ZM5.28791 11.1632C4.63894 11.1632 4.11284 11.6893 4.11284 12.3383C4.11284 12.9872 4.63894 13.5133 5.28791 13.5133H8.81311C9.46208 13.5133 9.98818 12.9872 9.98818 12.3383C9.98818 11.6893 9.46208 11.1632 8.81311 11.1632H5.28791ZM5.28791 15.8635C4.63894 15.8635 4.11284 16.3896 4.11284 17.0386C4.11284 17.6876 4.63894 18.2136 5.28791 18.2136H8.81311C9.46208 18.2136 9.98818 17.6876 9.98818 17.0386C9.98818 16.3896 9.46208 15.8635 8.81311 15.8635H5.28791ZM3.99072 21.8381C3.99072 21.1891 4.51682 20.663 5.16579 20.663H25.762C26.411 20.663 26.937 21.1891 26.937 21.8381C26.937 22.487 26.411 23.0131 25.762 23.0131H5.16579C4.51682 23.0131 3.99072 22.487 3.99072 21.8381Z" fill="#FAFAFD"/>
</svg>
