<svg width="144" height="118" viewBox="0 0 144 118" fill="none" xmlns="http://www.w3.org/2000/svg">
<path fill-rule="evenodd" clip-rule="evenodd" d="M75.8246 83.3816L64.6433 76.9485L73.4754 85.7349L75.8246 83.3816Z" fill="#1F1F1F"/>
<path fill-rule="evenodd" clip-rule="evenodd" d="M63.6057 77.0142C63.563 77.0917 63.5166 77.1811 63.5166 77.2798V95.4836C63.5166 95.5408 63.5463 95.5946 63.5616 95.6453L72.9149 86.2752L63.6057 77.0142Z" fill="#1F1F1F"/>
<path fill-rule="evenodd" clip-rule="evenodd" d="M73.4771 86.8137L64.3071 96C64.3339 95.9897 64.3605 95.9777 64.3865 95.9627L75.9729 89.2966L73.4771 86.8137Z" fill="#1F1F1F"/>
<path fill-rule="evenodd" clip-rule="evenodd" d="M80.2067 85.9028L76.5097 83.7758L74.0166 86.2734L76.6588 88.902L80.2067 86.8608C80.5761 86.6483 80.5761 86.1153 80.2067 85.9028Z" fill="#1F1F1F"/>
<path d="M39.5044 82.7099C38.4806 81.4261 37.0419 80.6812 35.6832 80.6812C33.8894 80.6812 33.1307 81.5399 31.8845 81.5399C30.5995 81.5399 29.6232 80.6837 28.072 80.6837C26.5483 80.6837 24.9258 81.6149 23.897 83.2074C22.4508 85.4499 22.6983 89.6661 25.042 93.2573C25.8808 94.5423 27.0007 95.9873 28.4657 95.9998C29.7695 96.0123 30.137 95.1635 31.9032 95.1548C33.6694 95.1448 34.0044 96.011 35.3057 95.9973C36.7719 95.986 37.9532 94.3848 38.7919 93.0998C39.3931 92.1786 39.6169 91.7148 40.0831 90.6748C36.6919 89.3836 36.1482 84.5611 39.5044 82.7099Z" fill="#1F1F1F"/>
<path d="M35.2906 76C34.2243 76.0737 32.9781 76.7562 32.2518 77.645C31.5894 78.4512 31.0444 79.6487 31.2569 80.8125C32.4218 80.8487 33.6256 80.15 34.3231 79.2462C34.9756 78.405 35.4693 77.215 35.2906 76Z" fill="#1F1F1F"/>
<path fill-rule="evenodd" clip-rule="evenodd" d="M64.5 22H79.5C80.8787 22 82 23.1212 82 24.5V39.5C82 40.8787 80.8787 42 79.5 42H75.75V35.125H77.625L78.875 32H75.75V29.5C75.75 28.8658 76.2231 28.8694 76.8355 28.8742C76.8893 28.8746 76.9442 28.875 77 28.875H78.25V25.75H75.75C73.6788 25.75 72 27.4288 72 29.5V32H69.5V35.125H72V42H64.5C63.1212 42 62 40.8787 62 39.5V24.5C62 23.1212 63.1212 22 64.5 22Z" fill="white"/>
<path d="M106.432 88.0863L105.736 90.6852L103.192 90.739C102.431 89.3286 102 87.7149 102 86C102 84.3418 102.403 82.778 103.118 81.4011H103.119L105.384 81.8164L106.376 84.0682C106.169 84.6737 106.055 85.3237 106.055 86C106.056 86.7341 106.188 87.4374 106.432 88.0863Z" fill="#FBBB00"/>
<path d="M121.825 84.1318C121.94 84.7368 122 85.3615 122 86C122 86.7159 121.925 87.4143 121.781 88.0879C121.294 90.3802 120.022 92.3819 118.26 93.7983L118.26 93.7978L115.407 93.6522L115.003 91.1313C116.172 90.4456 117.086 89.3725 117.567 88.0879H112.22V84.1318H117.645H121.825Z" fill="#518EF8"/>
<path d="M118.26 93.7978L118.26 93.7984C116.547 95.1758 114.37 96 112 96C108.192 96 104.881 93.8715 103.192 90.739L106.432 88.0863C107.277 90.3401 109.451 91.9446 112 91.9446C113.095 91.9446 114.122 91.6484 115.003 91.1313L118.26 93.7978Z" fill="#28B446"/>
<path d="M118.383 78.3022L115.143 80.9544C114.232 80.3846 113.154 80.0555 112 80.0555C109.393 80.0555 107.179 81.7335 106.376 84.0681L103.119 81.4011H103.118C104.782 78.1923 108.135 76 112 76C114.426 76 116.651 76.8643 118.383 78.3022Z" fill="#F14336"/>
<path d="M39.5044 28.7099C38.4806 27.4261 37.0419 26.6812 35.6832 26.6812C33.8894 26.6812 33.1307 27.5399 31.8845 27.5399C30.5995 27.5399 29.6232 26.6837 28.072 26.6837C26.5483 26.6837 24.9258 27.6149 23.897 29.2074C22.4508 31.4499 22.6983 35.6661 25.042 39.2573C25.8808 40.5423 27.0007 41.9873 28.4657 41.9998C29.7695 42.0123 30.137 41.1635 31.9032 41.1548C33.6694 41.1448 34.0044 42.011 35.3057 41.9973C36.7719 41.986 37.9532 40.3848 38.7919 39.0998C39.3931 38.1786 39.6169 37.7148 40.0831 36.6748C36.6919 35.3836 36.1482 30.5611 39.5044 28.7099Z" fill="white"/>
<path d="M35.2906 22C34.2243 22.0737 32.9781 22.7562 32.2518 23.645C31.5894 24.4512 31.0444 25.6487 31.2569 26.8125C32.4218 26.8487 33.6256 26.15 34.3231 25.2462C34.9756 24.405 35.4693 23.215 35.2906 22Z" fill="white"/>
<rect x="0.5" y="0.5" width="143" height="117" rx="4.5" stroke="#7B61FF" stroke-dasharray="10 5"/>
<path fill-rule="evenodd" clip-rule="evenodd" d="M111.331 22.0215C113.71 22.0215 115.652 23.8954 115.761 26.2477L115.766 26.4565V27.3895C115.766 27.8037 115.43 28.1395 115.016 28.1395C114.636 28.1395 114.322 27.8573 114.273 27.4913L114.266 27.3895V26.4565C114.266 24.8936 113.044 23.6157 111.503 23.5265L111.331 23.5215H106.456C104.894 23.5215 103.616 24.7436 103.527 26.2841L103.522 26.4565V37.5865C103.522 39.1493 104.744 40.4272 106.284 40.5165L106.456 40.5215H111.341C112.898 40.5215 114.172 39.3039 114.261 37.7693L114.266 37.5975V36.6545C114.266 36.2403 114.602 35.9045 115.016 35.9045C115.396 35.9045 115.709 36.1866 115.759 36.5527L115.766 36.6545V37.5975C115.766 39.9687 113.899 41.9046 111.555 42.0164L111.341 42.0215H106.456C104.078 42.0215 102.136 40.1474 102.027 37.7952L102.022 37.5865V26.4565C102.022 24.0774 103.896 22.1353 106.247 22.0263L106.456 22.0215H111.331ZM122.328 31.4796C122.471 31.6161 122.559 31.8084 122.559 32.0214C122.559 32.2365 122.469 32.4305 122.324 32.5672L119.41 35.4687C119.117 35.761 118.642 35.76 118.35 35.4665C118.084 35.1997 118.061 34.783 118.279 34.4898L118.352 34.4059L119.992 32.7714H109.768C109.354 32.7714 109.018 32.4356 109.018 32.0214C109.018 31.6417 109.301 31.3279 109.667 31.2782L109.768 31.2714H119.994L118.352 29.6378C118.085 29.3721 118.06 28.9555 118.277 28.6614L118.35 28.5771C118.615 28.3103 119.032 28.2851 119.326 28.5023L119.41 28.5748L122.328 31.4796Z" fill="black"/>
</svg>
